<?xml version="1.0" ?><!DOCTYPE svg  PUBLIC '-//W3C//DTD SVG 1.1//EN'  'http://www.w3.org/Graphics/SVG/1.1/DTD/svg11.dtd'><svg height="512px" style="enable-background:new 0 0 512 512;" version="1.1" viewBox="0 0 512 512" width="512px" xml:space="preserve" xmlns="http://www.w3.org/2000/svg" xmlns:xlink="http://www.w3.org/1999/xlink"><style type="text/css">
<![CDATA[
	.st0{display:inline;}
	.st1{fill:none;stroke:#000000;stroke-width:16;stroke-linecap:round;stroke-linejoin:round;stroke-miterlimit:10;}
	.st2{display:none;}
]]>
</style><g class="st2" id="Layer"><g class="st0"><g><polyline class="st1" points="171,386 424,386 424,385.999    "/><polyline class="st1" points="88,386 119,386 119,385.999    "/></g><g><polyline class="st1" points="171,257 424,257 424,256.999    "/><polyline class="st1" points="88,257 119,257 119,256.999    "/></g><g><polyline class="st1" points="171,127 424,127 424,126.999    "/><polyline class="st1" points="88,127 119,127 119,126.999    "/></g></g></g><g id="Layer_copy"><g><g><path d="M424,394H171c-4.418,0-8-3.582-8-8s3.582-8,8-8h253c4.418,0,8,3.582,8,8S428.418,394,424,394z"/></g><g><path d="M119,394H88c-4.418,0-8-3.582-8-8s3.582-8,8-8h31c4.418,0,8,3.582,8,8S123.418,394,119,394z"/></g></g><g><g><path d="M424,265H171c-4.418,0-8-3.582-8-8c0-4.418,3.582-8,8-8h253c4.418,0,8,3.582,8,8C432,261.418,428.418,265,424,265z"/></g><g><path d="M119,265H88c-4.418,0-8-3.582-8-8c0-4.418,3.582-8,8-8h31c4.418,0,8,3.582,8,8C127,261.418,123.418,265,119,265z"/></g></g><g><g><path d="M424,135H171c-4.418,0-8-3.582-8-8s3.582-8,8-8h253c4.418,0,8,3.582,8,8S428.418,135,424,135z"/></g><g><path d="M119,135H88c-4.418,0-8-3.582-8-8s3.582-8,8-8h31c4.418,0,8,3.582,8,8S123.418,135,119,135z"/></g></g></g></svg>